<svg xmlns="http://www.w3.org/2000/svg" width="203" height="248" style="shape-rendering:geometricPrecision;text-rendering:geometricPrecision;image-rendering:optimizeQuality;fill-rule:evenodd;clip-rule:evenodd"><path style="opacity:1" fill="#0f0e0f" d="M-.5-.5h203v207a26.335 26.335 0 0 0-2 5h-2v-2c.904-.709 1.237-1.709 1-3H.5c.237-1.291-.096-2.291-1-3V-.5Z"/><path style="opacity:1" fill="#0191db" d="M199.5 204.5c-8.15.993-16.483 1.326-25 1v-86c-1.956-14.089-2.623-28.423-2-43 2.048.34 3.048.007 3-1a16.626 16.626 0 0 0-5-6c-.838-.342-1.172-1.008-1-2 .073-1.527-.594-2.527-2-3-.25-2.174-1.25-3.84-3-5-1.174-1.014-1.84-2.347-2-4-.207-2.74-1.207-5.074-3-7 .098-2.053-.569-3.72-2-5-.904-.709-1.237-1.709-1-3a35.496 35.496 0 0 0-3.5-12 8.43 8.43 0 0 0-.5 4c-1.574 1.602-2.241 3.602-2 6 .237 1.291-.096 2.291-1 3-1.767 2.292-2.767 4.958-3 8 .172.992-.162 1.658-1 2-1.431 1.28-2.098 2.947-2 5-.492 2.319-1.492 4.319-3 6-2.088 1.836-3.421 4.169-4 7-1.406.473-2.073 1.473-2 3-.667 0-1 .333-1 1-2.485 1.24-2.485 2.24 0 3v42h-16v-39c1.676-.683 2.343-2.017 2-4 3.247-.429 3.247-1.762 0-4 .073-1.527-.594-2.527-2-3 .073-1.527-.594-2.527-2-3-.838-.342-1.172-1.008-1-2 .073-1.527-.594-2.527-2-3-1.841-2.349-3.174-5.015-4-8 .098-2.053-.569-3.72-2-5 .098-2.053-.569-3.72-2-5a32.462 32.462 0 0 0-.5-8c-.278.916-.778 1.583-1.5 2-.934-1.068-1.268-2.401-1-4a4.934 4.934 0 0 0-.5-3c-1.903 1.941-2.736 4.274-2.5 7-.095 2.286-.762 4.286-2 6-.617-.11-1.117-.444-1.5-1a39.99 39.99 0 0 0-2.5 11c-1.431 1.28-2.098 2.947-2 5-.16 1.653-.826 2.986-2 4-1.75 1.16-2.75 2.826-3 5 .172.992-.162 1.658-1 2-1.406.473-2.073 1.473-2 3-1.474.936-2.474 2.27-3 4-.567.92.1 1.254 2 1v3h3v39h-17v-42c3.505-.194 3.838-1.194 1-3 0-.667-.333-1-1-1 .073-1.527-.594-2.527-2-3 .073-1.527-.594-2.527-2-3-.838-.342-1.172-1.008-1-2 .073-1.527-.594-2.527-2-3-2.174-3.015-3.841-6.349-5-10 .098-2.053-.569-3.72-2-5-.904-.709-1.237-1.709-1-3-.428-3.285-1.428-6.285-3-9a20.088 20.088 0 0 0-1.5-6 128.812 128.812 0 0 0-4.5 15c.237 1.291-.096 2.291-1 3-1.431 1.28-2.098 2.947-2 5 .172.992-.162 1.658-1 2-2.508 3.682-4.508 7.682-6 12 .172.992-.162 1.658-1 2-1.826 1.647-3.16 3.647-4 6-3.56 1.782-3.56 2.782 0 3a474.202 474.202 0 0 1-1 43v86h-25V2.5h197v202Z"/><path style="opacity:1" fill="#01547f" d="M123.5 161.5v40c.268 1.599-.066 2.932-1 4v-57h-8v6h-3v-6h-9a9.86 9.86 0 0 1-1 6c-.607-.124-.94-.457-1-1 .961-1.765 1.295-3.765 1-6h11c.333 8 .667 8 1 0h10v14Z"/><path style="opacity:1" fill="#0092dc" d="M100.5 153.5c.06.543.393.876 1 1a9.86 9.86 0 0 0 1-6h9v6h3v-6h8v56h-43v-56h9c-.285 1.788.048 3.455 1 5a9.864 9.864 0 0 0 1-6h10v6Z"/><path style="opacity:1" fill="#056598" d="M199.5 204.5V2.5H2.5v200c-1-66.831-1.332-133.831-1-201h199a10300.32 10300.32 0 0 1-1 203Z"/><path style="opacity:1" fill="#fbfbfb" d="M124.5 155.5h10v5h-10v-5Z"/><path style="opacity:1" fill="#fafafa" d="M77.5 155.5v5h-10v-5h10Z"/><path style="opacity:1" fill="#676768" d="M124.5 153.5h6c.333 1.333.667 1.333 1 0h4l-1 2h-10v-2Z"/><path style="opacity:1" fill="#696a6a" d="M66.5 153.5h4c.333 1.333.667 1.333 1 0h6v2h-10v5c-.968-2.107-1.302-4.441-1-7Z"/><path style="opacity:1" fill="#f1f1f1" d="M171.5 150.5h2c-.667 9.333-1.333 9.333-2 0Z"/><path style="opacity:1" fill="#c7c7c7" d="M28.5 150.5h2c-.667 9.333-1.333 9.333-2 0Z"/><path style="opacity:1" fill="#f5f5f5" d="M159.5 150.5h11v7h-11v-7Z"/><path style="opacity:1" fill="#fefffe" d="M158.5 150.5v7h-10v-7h10Z"/><path style="opacity:1" fill="#fdfdfd" d="M136.5 150.5h10v7h-10v-7Z"/><path style="opacity:1" fill="#efefef" d="M131.5 150.5h4v3h-4v-3Z"/><path style="opacity:1" fill="#f9f9f9" d="M66.5 150.5h4v3h-4v-3Z"/><path style="opacity:1" fill="#f4f4f4" d="M54.5 150.5h11v7h-11v-7Z"/><path style="opacity:1" fill="#fefffe" d="M53.5 150.5v7h-10v-7h10ZM31.5 150.5h10v7h-10v-7Z"/><path style="opacity:1" fill="#6d6d6d" d="M140.5 141.5c.57 2.938 1.237 5.272 2 7h10v-7h2v7h10c.333 1.333.667 1.333 1 0h8v2h-2c-.333-1.333-.667-1.333-1 0h-11c-.333-1.333-.667-1.333-1 0h-10v7h-2v-7h-10c-.333-1.333-.667-1.333-1 0h-4v-2h9v-7Z"/><path style="opacity:1" fill="#6d6e6e" d="M35.5 141.5c.57 2.938 1.237 5.272 2 7h10c.667 1.333 1.333 1.333 2 0h10c.333 1.333.667 1.333 1 0h10v2h-4c-.333-1.333-.667-1.333-1 0h-11c-.333-1.333-.667-1.333-1 0h-10v7h-2v-7h-10c-.333-1.333-.667-1.333-1 0h-2v-2h7v-7Z"/><path style="opacity:1" fill="#f9f9f9" d="M77.5 153.5h-6v-6l6 1v5Z"/><path style="opacity:1" fill="#f7f7f7" d="M126.5 146.5h4v7h-6c-.315-2.711.352-5.044 2-7Z"/><path style="opacity:1" fill="#018bd2" d="M81.5 140.5h7v6a21.128 21.128 0 0 1-9-1 16.062 16.062 0 0 0 2-5Z"/><path style="opacity:1" fill="#f6f6f6" d="M173.5 148.5h-8v-7h8v7Z"/><path style="opacity:1" fill="#fefefe" d="M154.5 141.5h10v7h-10v-7Z"/><path style="opacity:1" fill="#fefffe" d="M152.5 141.5v7h-10v-7h10Z"/><path style="opacity:1" fill="#fcfcfc" d="M140.5 141.5v7h-9v-3h3v-4h6Z"/><path style="opacity:1" fill="#0289cf" d="M122.5 143.5v3h-9v-6c3.604-.451 6.604.549 9 3Z"/><path style="opacity:1" fill="#018cd2" d="M90.5 140.5h10v6h-10v-6Z"/><path style="opacity:1" fill="#f9f9f9" d="M70.5 148.5h-10v-7a32.462 32.462 0 0 1 8 .5c-.88 1.356-1.213 2.856-1 4.5 1.679-.215 2.679.452 3 2Z"/><path style="opacity:1" fill="#f3f3f3" d="M59.5 148.5h-10c-.968-2.107-1.302-4.441-1-7h11v7Z"/><path style="opacity:1" fill="#fefffe" d="M47.5 148.5h-10v-7h10v7Z"/><path style="opacity:1" fill="#fafafa" d="M35.5 141.5v7h-7v-7h7Z"/><path style="opacity:1" fill="#03679b" d="M101.5 140.5h11v6h-11v-6Z"/><path style="opacity:1" fill="#0094de" d="M102.5 141.5h9v4h-9v-4Z"/><path style="opacity:1" fill="#a8a8a8" d="M160.5 132.5v7h10c-3.462.982-7.129 1.315-11 1-.306-2.885.027-5.552 1-8Z"/><path style="opacity:1" fill="#a9a9a9" d="M64.5 132.5c.973 2.448 1.306 5.115 1 8-3.871.315-7.538-.018-11-1h10v-7Z"/><path style="opacity:1" fill="#0b557f" d="M105.5 131.5c1.599-.268 2.932.066 4 1h-7v6h9v-4c.951 1.419 1.284 3.085 1 5h-11v-8h4Z"/><path style="opacity:1" fill="#ededed" d="m70.5 137.5 4 1c1.014 1.174 2.347 1.84 4 2 .567 2.198.567 4.531 0 7a87.877 87.877 0 0 0-9-2 41.58 41.58 0 0 1 1-8Z"/><path style="opacity:1" fill="#efefef" d="M129.5 136.5a10.165 10.165 0 0 1 3 3v5c-2.286.095-4.286.762-6 2h-3c.237-1.291-.096-2.291-1-3 .221-2.164 1.221-3.83 3-5 .992.172 1.658-.162 2-1 .992.172 1.658-.162 2-1Z"/><path style="opacity:1" fill="#0473ad" d="M115.5 135.5a14.698 14.698 0 0 0 3 3.5 12.93 12.93 0 0 1-5 .5c-.343-1.983.324-3.317 2-4Z"/><path style="opacity:1" fill="#0381c2" d="M86.5 135.5c1.677.683 2.343 2.017 2 4a12.93 12.93 0 0 1-5-.5 14.694 14.694 0 0 0 3-3.5Z"/><path style="opacity:1" fill="#202021" d="m75.5 134.5-1 4-4-1a29.551 29.551 0 0 0 5-3Z"/><path style="opacity:1" fill="#d6d6d7" d="M121.5 131.5c1.871.359 3.371 1.359 4.5 3 2.804-1.844 5.97-2.511 9.5-2a16.873 16.873 0 0 1-1 8 43.836 43.836 0 0 0-2-1c.317-3.034-.683-4.034-3-3-1.425-1.531-2.091-1.198-2 1-.342.838-1.008 1.172-2 1-3.389 1.705-6.055.872-8-2.5a25.14 25.14 0 0 0 4-4.5Z"/><path style="opacity:1" fill="#2c2d2d" d="M129.5 136.5c2.317-1.034 3.317-.034 3 3a10.165 10.165 0 0 0-3-3Z"/><path style="opacity:1" d="M129.5 136.5c-.342.838-1.008 1.172-2 1-.091-2.198.575-2.531 2-1Z"/><path style="opacity:1" fill="#dfdfdf" d="M171.5 132.5c1.248.834 1.915 2.167 2 4l-1 4a16.873 16.873 0 0 1-1-8Z"/><path style="opacity:1" fill="#f8f8f8" d="M160.5 132.5h10v7h-10v-7Z"/><path style="opacity:1" fill="#f2f2f2" d="M148.5 132.5h10v8h-10v-8Z"/><path style="opacity:1" fill="#5b5b5c" d="M146.5 132.5h2v8h-2v-8Z"/><path style="opacity:1" fill="#f3f3f3" d="M146.5 132.5v8h-10v-8h10Z"/><path style="opacity:1" fill="#0092dc" d="m109.5 132.5 2 2v4h-9v-6h7Z"/><path style="opacity:1" fill="#0188cd" d="m92.5 132.5 8-1v8h-10c-.315-2.711.352-5.044 2-7Z"/><path style="opacity:1" fill="#ededed" d="M75.5 134.5a29.551 29.551 0 0 1-5 3c-.765 1.16-1.765 2.16-3 3a16.868 16.868 0 0 1-1-8c3.512-.555 6.512.112 9 2Z"/><path style="opacity:1" fill="#f7f7f7" d="M64.5 132.5v7h-10v-7h10Z"/><path style="opacity:1" fill="#fbfbfb" d="M43.5 132.5h10v7h-10v-7Z"/><path style="opacity:1" fill="#858585" d="M41.5 132.5h2v7h10a61.015 61.015 0 0 1-22 0h10v-7Z"/><path style="opacity:1" fill="#fbfbfb" d="M41.5 132.5v7h-10v-7h10Z"/><path style="opacity:1" fill="#bbb" d="M28.5 132.5c1.248.834 1.915 2.167 2 4l-1 4a16.868 16.868 0 0 1-1-8Z"/><path style="opacity:1" fill="#d9d9d9" d="M79.5 131.5c1.31 1.648 2.643 3.314 4 5-1.13 1.122-1.797 2.456-2 4h-3c-1.653-.16-2.986-.826-4-2l1-4 4-3Z"/><path style="opacity:1" fill="#2c2c2d" d="M113.5 128.5c.073 1.527-.594 2.527-2 3-.073-1.527.594-2.527 2-3Z"/><path style="opacity:1" fill="#ededed" d="M119.5 125.5c1.074 1.385 2.407 2.551 4 3.5-.881.708-1.547 1.542-2 2.5a17.902 17.902 0 0 0-6 4l-4-4c1.406-.473 2.073-1.473 2-3 1.406-.473 2.073-1.473 2-3 1.202-.905 2.536-.905 4 0Z"/><path style="opacity:1" fill="#e5e5e5" d="M113.5 128.5c-1.406.473-2.073 1.473-2 3l-2 1c-1.068-.934-2.401-1.268-4-1a51.569 51.569 0 0 1 1-7c2.064.187 4.064.687 6 1.5.752.671 1.086 1.504 1 2.5Z"/><path style="opacity:1" fill="#e7e7e7" d="M95.5 125.5c-.213 1.644.12 3.144 1 4.5a51.239 51.239 0 0 1-4 2.5 24.546 24.546 0 0 1-5-5c2.38-2.133 5.048-2.799 8-2Z"/><path style="opacity:1" fill="#f3f3f3" d="M82.5 125.5c2.014-.108 3.68.558 5 2a16.062 16.062 0 0 0 2 5c-1.27.788-2.27 1.788-3 3l-7-4a44.043 44.043 0 0 0-1-2c1.367-1.34 2.7-2.673 4-4Z"/><path style="opacity:1" fill="#fafafa" d="M173.5 124.5v7h-7v-7h7Z"/><path style="opacity:1" fill="#f6f6f6" d="M154.5 123.5h10v8h-10v-8Z"/><path style="opacity:1" fill="#636363" d="M152.5 123.5h2v8h-2v-8Z"/><path style="opacity:1" fill="#f4f4f4" d="M152.5 123.5v8h-10v-8h10Z"/><path style="opacity:1" fill="#f1f1f1" d="M130.5 123.5h11v8h-11v-8Z"/><path style="opacity:1" fill="#e8e8e8" d="M119.5 125.5c-.111-.617-.444-1.117-1-1.5a60.931 60.931 0 0 1 11-.5v8h-5c.524-3.81-1.143-5.81-5-6Z"/><path style="opacity:1" fill="#ebebeb" d="M82.5 125.5c-2.437.386-4.437 1.553-6 3.5.457.414.79.914 1 1.5-1.545.952-3.212 1.285-5 1v-8c3.83-.569 7.163.098 10 2Z"/><path style="opacity:1" fill="#a2a2a2" d="M60.5 124.5c3.462-.982 7.129-1.315 11-1 .306 2.885-.027 5.552-1 8v-7h-10Z"/><path style="opacity:1" fill="#fafafa" d="M60.5 124.5h10v7h-10v-7ZM59.5 124.5v7h-10v-7h10Z"/><path style="opacity:1" fill="#979999" d="M59.5 124.5h-10v7c-.973-2.448-1.306-5.115-1-8 3.871-.315 7.538.018 11 1Z"/><path style="opacity:1" fill="#f4f4f4" d="M37.5 123.5h10v8h-10v-8Z"/><path style="opacity:1" fill="#b4b4b4" d="M35.5 131.5v-7h-6v7c-.973-2.448-1.306-5.115-1-8h8c.306 2.885-.027 5.552-1 8Z"/><path style="opacity:1" fill="#fcfcfc" d="M35.5 131.5h-6v-7h6v7Z"/><path style="opacity:1" fill="#b4b4b4" d="M173.5 124.5h-7v7c-.973-2.448-1.306-5.115-1-8 2.885-.306 5.552.027 8 1Z"/><path style="opacity:1" fill="#a9a9a9" d="M115.5 125.5a42.47 42.47 0 0 1-5-1.5l2.5-.5c1.376.184 2.209.851 2.5 2Z"/><path style="opacity:1" fill="#bcbcbc" d="M86.5 123.5c4.521-.174 4.855.493 1 2-.797-.457-1.13-1.124-1-2Z"/><path style="opacity:1" fill="#f7f7f7" d="M95.5 122.5h11c-1.274 2.493-1.94 5.159-2 8-4.671.851-7.671-.816-9-5v-3Z"/><path style="opacity:1" fill="#8a8b8b" d="M93.5 120.5c4.184.351 8.184 1.018 12 2h-10c-.438-1.006-1.104-1.006-2 0v-2Z"/><path style="opacity:1" fill="#fdfdfd" d="M106.5 121.5c22.16-.997 44.494-1.331 67-1-10.646 1.332-21.646 1.999-33 2a593.412 593.412 0 0 1-34-1Z"/><path style="opacity:1" fill="#fefefe" d="M28.5 120.5h65v2c-22.026.656-43.692-.011-65-2Z"/><path style="opacity:1" fill="#5a5a59" d="M65.5 115.5h1v4h18c.667 0 1-.333 1-1h15c.333 1.333.667 1.333 1 0h14c0 .667.333 1 1 1h18c.667 0 1-.333 1-1h17c.333 1.333.667 1.333 1 0h17v-3h1c-.343 1.983.324 3.317 2 4v1c-22.506-.331-44.84.003-67 1v1h-1c-3.816-.982-7.816-1.649-12-2h-65v-1h1c.667 0 1-.333 1-1h17c.333 1.333.667 1.333 1 0h17v-3Z"/><path style="opacity:1" fill="#f1f1f1" d="M170.5 115.5v3h-17v-3h17Z"/><path style="opacity:1" fill="#f2f2f2" d="M65.5 115.5v3h-17v-3h17Z"/><path style="opacity:1" fill="#f5f5f5" d="M170.5 109.5v5h-8v-5h8Z"/><path style="opacity:1" fill="#f2f2f2" d="M158.5 103.5h12v5h-12v-5Z"/><path style="opacity:1" fill="#6c6c6c" d="M171.5 96.5v12h-1v-5h-12v-2h3c1.018-.792 1.351-2.459 1-5h9Z"/><path style="opacity:1" fill="#fefffe" d="M163.5 97.5h7v4h-7v-4Z"/><path style="opacity:1" fill="#fafafa" d="M170.5 90.5v5h-12v-5h12Z"/><path style="opacity:1" fill="#080809" d="M133.5 73.5c0 1.333.667 2 2 2v3h35c1.333.333 1.333.667 0 1h-16c-.934 1.068-1.268 2.401-1 4h17c1.333.333 1.333.667 0 1h-8v5h8c1.333.333 1.333.667 0 1h-12v5h12c.667 0 1 .333 1 1h-9c.351 2.541.018 4.208-1 5v-5h-3v12h13c0 .667-.333 1-1 1h-8v5h8c.667 0 1 .333 1 1h-18v3c-.333 1.333-.667 1.333-1 0v-3h-17v3c0 .667-.333 1-1 1a462.903 462.903 0 0 0-1-43c-2.485-.76-2.485-1.76 0-3Z"/><path style="opacity:1" fill="#f4f4f4" d="M152.5 118.5h-17v-3h17v3Z"/><path style="opacity:1" fill="#eee" d="M144.5 109.5h4v4h10v-4h3v5h-17v-5Z"/><path style="opacity:1" fill="#f8f8f8" d="M135.5 109.5h8v5h-8v-5Z"/><path style="opacity:1" fill="#b2b2b2" d="M147.5 103.5h1v5c-4.532.318-8.866-.015-13-1h12v-4Z"/><path style="opacity:1" fill="#fefefe" d="M135.5 103.5h12v4h-12v-4Z"/><path style="opacity:1" fill="#606161" d="M135.5 101.5h8c.333 1.333.667 1.333 1 0h4v2h-13v-2Z"/><path style="opacity:1" fill="#f1f1f1" d="M161.5 101.5h-3v-5h3v5Z"/><path style="opacity:1" fill="#cbcccc" d="M148.5 101.5h-4v-5h4v5Z"/><path style="opacity:1" fill="#ededed" d="M143.5 101.5h-8v-5h8v5Z"/><path style="opacity:1" fill="#f6f6f6" d="M135.5 90.5h13v5h-13v-5Z"/><path style="opacity:1" fill="#030304" d="M79.5 75.5h3c-.237 1.291.096 2.291 1 3 12.048.645 23.715-.022 35-2v-1h1c.343 1.983-.324 3.317-2 4a400.457 400.457 0 0 0-1 40c-.667 0-1-.333-1-1v-3h-14v3c-.333 1.333-.667 1.333-1 0v-3h-15v3c0 .667-.333 1-1 1v-40h-3v-3c-1.9.254-2.567-.08-2-1Z"/><path style="opacity:1" fill="#f5f5f5" d="M115.5 118.5h-14v-3h14v3Z"/><path style="opacity:1" fill="#f0f0f1" d="M100.5 118.5h-15v-3h15v3Z"/><path style="opacity:1" fill="#e8e8e8" d="M85.5 109.5h7v5h-7v-5Z"/><path style="opacity:1" fill="#5d5d5d" d="M107.5 109.5h2v5h-2v-5Z"/><path style="opacity:1" fill="#fbfbfb" d="M109.5 109.5h6v5h-6v-5ZM107.5 109.5v5h-14v-5h14Z"/><path style="opacity:1" fill="#aeaeae" d="M96.5 105.5h4v3c-5.195.321-10.195-.013-15-1a98.433 98.433 0 0 0 14-.5c-1.237-.232-2.237-.732-3-1.5Z"/><path style="opacity:1" fill="#ededed" d="M115.5 103.5v5h-14v-3h3c3.331-1.798 6.998-2.464 11-2Z"/><path style="opacity:1" fill="#fcfcfc" d="M85.5 103.5h11v2c.763.768 1.763 1.268 3 1.5a98.433 98.433 0 0 1-14 .5v-4Z"/><path style="opacity:1" fill="#666667" d="M109.5 96.5v5h6v2c-4.002-.464-7.669.202-11 2v-9h5Z"/><path style="opacity:1" fill="#717272" d="M85.5 97.5c2.107-.968 4.44-1.302 7-1-.351 2.541-.018 4.208 1 5h3v2h-11v-2h6v-4h-6Z"/><path style="opacity:1" fill="#f0f0f0" d="M109.5 96.5h6v5h-6v-5Z"/><path style="opacity:1" fill="#fefffe" d="M105.5 97.5c1.086.12 1.753.787 2 2l-1 2c-.929-1.189-1.262-2.522-1-4Z"/><path style="opacity:1" fill="#efefef" d="M96.5 101.5h-3v-5h3v5Z"/><path style="opacity:1" fill="#fdfdfd" d="M85.5 97.5h6v4h-6v-4Z"/><path style="opacity:1" fill="#f5f5f5" d="M104.5 90.5h11v5h-11v-5Z"/><path style="opacity:1" fill="#f7f7f7" d="M85.5 90.5h11v5h-11v-5Z"/><path style="opacity:1" fill="#0f0f10" d="M28.5 73.5c0 1.333.667 2 2 2v3h35v-3c1.679.215 2.679-.452 3-2 2.838 1.806 2.505 2.806-1 3a380.845 380.845 0 0 0-1 39h-18v3c-.333 1.333-.667 1.333-1 0v-3h-17v3c0 .667-.333 1-1 1 .33-14.51-.004-28.843-1-43-3.56-.218-3.56-1.218 0-3Z"/><path style="opacity:1" fill="#f4f4f4" d="M47.5 118.5h-17v-3h17v3Z"/><path style="opacity:1" fill="#eee" d="M39.5 109.5h4v4h10v-4h3v5h-17v-5Z"/><path style="opacity:1" fill="#f6f6f6" d="M57.5 109.5h8v5h-8v-5Z"/><path style="opacity:1" fill="#f8f8f8" d="M30.5 109.5h8v5h-8v-5Z"/><path style="opacity:1" fill="#a1a2a2" d="M53.5 103.5v4h12c-4.134.985-8.468 1.318-13 1-.285-1.915.049-3.581 1-5Z"/><path style="opacity:1" fill="#adadad" d="M42.5 103.5h1v5c-4.532.318-8.866-.015-13-1h12v-4Z"/><path style="opacity:1" fill="#fefffe" d="M53.5 103.5h12v4h-12v-4ZM30.5 103.5h12v4h-12v-4Z"/><path style="opacity:1" fill="#636364" d="M53.5 101.5h3c.333 1.333.667 1.333 1 0h8v2h-12v-2Z"/><path style="opacity:1" fill="#6b6c6c" d="M39.5 97.5c1.068-.934 2.401-1.268 4-1v7h-13v-2h8c.333 1.333.667 1.333 1 0h3v-4h-3Z"/><path style="opacity:1" fill="#ebebeb" d="M65.5 101.5h-8v-5h8v5Z"/><path style="opacity:1" fill="#f1f1f1" d="M56.5 101.5h-3v-5h3v5Z"/><path style="opacity:1" fill="#fdfdfd" d="M39.5 97.5h3v4h-3v-4Z"/><path style="opacity:1" fill="#ededed" d="M38.5 101.5h-8v-5h8v5Z"/><path style="opacity:1" fill="#fafafa" d="M53.5 90.5h12v5h-12v-5Z"/><path style="opacity:1" fill="#f5f5f5" d="M30.5 90.5h13v5h-13v-5Z"/><path style="opacity:1" fill="#5c5c5d" d="M107.5 84.5h2v5h-2v-5Z"/><path style="opacity:1" fill="#f3f3f3" d="M170.5 84.5v5h-8v-5h8Z"/><path style="opacity:1" fill="#f5f5f5" d="M144.5 84.5h17v5c-3.077-.227-5.91-1.227-8.5-3-2.502 1.934-5.336 2.934-8.5 3v-5Z"/><path style="opacity:1" fill="#f6f6f6" d="M135.5 84.5h8v5h-8v-5Z"/><path style="opacity:1" fill="#f9f9f9" d="M109.5 84.5h6v5h-6v-5Z"/><path style="opacity:1" fill="#f8f8f8" d="M107.5 84.5v5c-2.473-.3-4.64-1.3-6.5-3-2.23 1.7-4.73 2.7-7.5 3v-5h14Z"/><path style="opacity:1" fill="#f1f1f1" d="M85.5 84.5h7v5h-7v-5Z"/><path style="opacity:1" fill="#f5f5f5" d="M57.5 84.5h8v5h-8v-5Z"/><path style="opacity:1" fill="#f8f8f8" d="M39.5 84.5h17v5c-3.077-.227-5.91-1.227-8.5-3-2.59 1.773-5.423 2.773-8.5 3v-5Z"/><path style="opacity:1" fill="#f6f6f6" d="M30.5 84.5h8v5h-8v-5Z"/><path style="opacity:1" fill="#9f9f9f" d="M154.5 79.5v3h16v1h-17c-.268-1.599.066-2.932 1-4ZM99.5 79.5c.934 1.068 1.268 2.401 1 4-5.195.32-10.195-.013-15-1h14v-3Z"/><path style="opacity:1" fill="#9fa0a0" d="M49.5 79.5v3h16c-5.475.989-11.142 1.322-17 1-.268-1.599.066-2.932 1-4Z"/><path style="opacity:1" fill="#f7f7f7" d="M154.5 79.5h16v3h-16v-3Z"/><path style="opacity:1" fill="#e5e5e5" d="M135.5 79.5h17v4h-17v-4Z"/><path style="opacity:1" fill="#04669a" d="M133.5 76.5a462.903 462.903 0 0 1 1 43h-18a400.457 400.457 0 0 1 1-40v39h16v-42Z"/><path style="opacity:1" fill="#e5e5e5" d="M101.5 79.5h14v4h-14v-4Z"/><path style="opacity:1" fill="#f6f6f6" d="M99.5 79.5v3h-14v-3h14Z"/><path style="opacity:1" fill="#04557f" d="M67.5 76.5v42h17v1h-18v-4a380.845 380.845 0 0 1 1-39Z"/><path style="opacity:1" fill="#f7f7f7" d="M49.5 79.5h16v3h-16v-3Z"/><path style="opacity:1" fill="#e5e5e5" d="M30.5 79.5h17v4h-17v-4Z"/><path style="opacity:1" fill="#046ca3" d="M28.5 76.5a462.833 462.833 0 0 1 1 43h-2a474.202 474.202 0 0 0 1-43Z"/><path style="opacity:1" fill="#d4d5d5" d="M135.5 75.5h35v3h-35v-3Z"/><path style="opacity:1" fill="#ebebeb" d="M118.5 76.5c-11.285 1.978-22.952 2.645-35 2 11.285-1.978 22.952-2.645 35-2Z"/><path style="opacity:1" fill="#d4d5d5" d="M30.5 75.5h35v3h-35v-3Z"/><path style="opacity:1" fill="#2a4862" d="M170.5 75.5h5c.048 1.007-.952 1.34-3 1-.623 14.577.044 28.911 2 43h-1c-1.676-.683-2.343-2.017-2-4 0-.667-.333-1-1-1v-5c.667 0 1-.333 1-1v-12c0-.667-.333-1-1-1v-5c1.333-.333 1.333-.667 0-1v-5c1.333-.333 1.333-.667 0-1v-4c1.333-.333 1.333-.667 0-1v-3Z"/><path style="opacity:1" fill="#8c8f8f" d="M82.5 75.5h36v1c-12.048-.645-23.715.022-35 2-.904-.709-1.237-1.709-1-3Z"/><path style="opacity:1" fill="#3e0401" d="M170.5 69.5a16.626 16.626 0 0 1 5 6h-40c-1.333 0-2-.667-2-2 0-.667.333-1 1-1 5.963 1.33 12.296 1.996 19 2l19-1c-1.13-1.122-1.797-2.456-2-4Z"/><path style="opacity:1" fill="#390402" d="M82.5 71.5c.086.996-.248 1.83-1 2.5 13 .667 26 .667 39 0-.752-.67-1.086-1.504-1-2.5 3.247 2.238 3.247 3.571 0 4h-40c.526-1.73 1.526-3.064 3-4Z"/><path style="opacity:1" fill="#3d0604" d="M32.5 67.5a12.802 12.802 0 0 1-3 6l19 1c6.704-.004 13.037-.67 19-2 .667 0 1 .333 1 1-.321 1.548-1.321 2.215-3 2h-35c-1.333 0-2-.667-2-2 .84-2.353 2.174-4.353 4-6Z"/><path style="opacity:1" fill="#1a0c0a" d="M136.5 69.5c.073 1.527-.594 2.527-2 3-.073-1.527.594-2.527 2-3Z"/><path style="opacity:1" fill="#170c0f" d="M65.5 69.5c1.406.473 2.073 1.473 2 3-1.406-.473-2.073-1.473-2-3Z"/><path style="opacity:1" fill="#141218" d="M117.5 68.5c1.406.473 2.073 1.473 2 3-1.406-.473-2.073-1.473-2-3Z"/><path style="opacity:1" fill="#170f12" d="M84.5 68.5c.073 1.527-.594 2.527-2 3-.073-1.527.594-2.527 2-3Z"/><path style="opacity:1" fill="#1c0f0f" d="M63.5 66.5c1.406.473 2.073 1.473 2 3-1.406-.473-2.073-1.473-2-3Z"/><path style="opacity:1" fill="#1a1318" d="M115.5 65.5c1.406.473 2.073 1.473 2 3-1.406-.473-2.073-1.473-2-3Z"/><path style="opacity:1" fill="#0f1218" d="M167.5 64.5c1.406.473 2.073 1.473 2 3-1.406-.473-2.073-1.473-2-3Z"/><path style="opacity:1" fill="#1e1112" d="M140.5 62.5c-.579 2.831-1.912 5.164-4 7 .579-2.831 1.912-5.164 4-7Z"/><path style="opacity:1" fill="#17131a" d="M88.5 61.5c-.25 2.174-1.25 3.84-3 5 .25-2.174 1.25-3.84 3-5Z"/><path style="opacity:1" fill="#1a1318" d="M60.5 61.5c1.406.473 2.073 1.473 2 3-1.406-.473-2.073-1.473-2-3ZM112.5 60.5c1.406.473 2.073 1.473 2 3-1.406-.473-2.073-1.473-2-3Z"/><path style="opacity:1" fill="#1f1316" d="M164.5 59.5c1.75 1.16 2.75 2.826 3 5-1.75-1.16-2.75-2.826-3-5Z"/><path style="opacity:1" fill="#18151b" d="M39.5 53.5c-.96 4.586-2.96 8.586-6 12 1.492-4.318 3.492-8.318 6-12Z"/><path style="opacity:1" fill="#171218" d="M92.5 52.5c.098 2.053-.569 3.72-2 5-.098-2.053.569-3.72 2-5ZM145.5 51.5c.098 2.053-.569 3.72-2 5-.098-2.053.569-3.72 2-5Z"/><path style="opacity:1" fill="#2e181b" d="M159.5 48.5c1.793 1.926 2.793 4.26 3 7-2.318-1.685-3.318-4.019-3-7Z"/><path style="opacity:1" fill="#191014" d="M106.5 47.5c1.431 1.28 2.098 2.947 2 5-1.431-1.28-2.098-2.947-2-5Z"/><path style="opacity:1" fill="#4e1914" d="M53.5 46.5c1.431 1.28 2.098 2.947 2 5-1.713-1.135-2.38-2.802-2-5Z"/><path style="opacity:1" fill="#441814" d="M42.5 46.5c.38 2.198-.287 3.865-2 5-.098-2.053.569-3.72 2-5Z"/><path style="opacity:1" fill="#461916" d="M149.5 41.5c-.103 3.136-1.103 5.803-3 8 .233-3.042 1.233-5.708 3-8Z"/><path style="opacity:1" fill="#1e4f74" d="M96.5 42.5c-.763 3.637-2.097 6.97-4 10a39.99 39.99 0 0 1 2.5-11c.383.556.883.89 1.5 1Z"/><path style="opacity:1" fill="#451813" d="M104.5 42.5c1.431 1.28 2.098 2.947 2 5-1.713-1.135-2.38-2.802-2-5Z"/><path style="opacity:1" fill="#151218" d="M157.5 43.5c1.431 1.28 2.098 2.947 2 5-1.431-1.28-2.098-2.947-2-5Z"/><path style="opacity:1" fill="#411a17" d="M49.5 34.5c1.572 2.715 2.572 5.715 3 9-2.362-2.419-3.362-5.419-3-9Z"/><path style="opacity:1" fill="#381613" d="M49.5 34.5c-.722-.417-1.222-1.084-1.5-2-.653 4.153-2.153 7.82-4.5 11a128.812 128.812 0 0 1 4.5-15 20.088 20.088 0 0 1 1.5 6Z"/><path style="opacity:1" fill="#d7241c" d="M101.5 32.5c-.268 1.599.066 2.932 1 4 .095 2.286.762 4.286 2 6-.38 2.198.287 3.865 2 5-.098 2.053.569 3.72 2 5 .826 2.985 2.159 5.651 4 8-.073 1.527.594 2.527 2 3-.172.992.162 1.658 1 2-.073 1.527.594 2.527 2 3-.073 1.527.594 2.527 2 3-.086.996.248 1.83 1 2.5-13 .667-26 .667-39 0 .752-.67 1.086-1.504 1-2.5 1.406-.473 2.073-1.473 2-3 .838-.342 1.172-1.008 1-2 1.75-1.16 2.75-2.826 3-5 1.174-1.014 1.84-2.347 2-4 1.431-1.28 2.098-2.947 2-5 1.903-3.03 3.237-6.363 4-10 1.238-1.714 1.905-3.714 2-6a9.818 9.818 0 0 1 3-4ZM152.5 32.5a63.305 63.305 0 0 1 4 8c-.237 1.291.096 2.291 1 3-.098 2.053.569 3.72 2 5-.318 2.981.682 5.315 3 7 .16 1.653.826 2.986 2 4 .25 2.174 1.25 3.84 3 5-.073 1.527.594 2.527 2 3-.172.992.162 1.658 1 2 .203 1.544.87 2.878 2 4l-19 1c-6.704-.004-13.037-.67-19-2 1.406-.473 2.073-1.473 2-3 2.088-1.836 3.421-4.169 4-7 1.508-1.681 2.508-3.681 3-6 1.431-1.28 2.098-2.947 2-5 .838-.342 1.172-1.008 1-2 1.897-2.197 2.897-4.864 3-8 .904-.709 1.237-1.709 1-3 1.238-1.714 1.905-3.714 2-6Z"/><path style="opacity:1" fill="#d8241c" d="M49.5 34.5c-.362 3.581.638 6.581 3 9-.237 1.291.096 2.291 1 3-.38 2.198.287 3.865 2 5 1.159 3.651 2.826 6.985 5 10-.073 1.527.594 2.527 2 3-.172.992.162 1.658 1 2-.073 1.527.594 2.527 2 3-.073 1.527.594 2.527 2 3-5.963 1.33-12.296 1.996-19 2l-19-1a12.802 12.802 0 0 0 3-6c.838-.342 1.172-1.008 1-2 3.04-3.414 5.04-7.414 6-12 .838-.342 1.172-1.008 1-2 1.713-1.135 2.38-2.802 2-5 .904-.709 1.237-1.709 1-3 2.347-3.18 3.847-6.847 4.5-11 .278.916.778 1.583 1.5 2Z"/><path style="opacity:1" fill="#0f141a" d="M156.5 40.5a63.305 63.305 0 0 0-4-8 8.43 8.43 0 0 1 .5-4 35.496 35.496 0 0 1 3.5 12Z"/><path style="opacity:1" fill="#111720" d="M152.5 32.5c-.095 2.286-.762 4.286-2 6-.241-2.398.426-4.398 2-6Z"/><path style="opacity:1" fill="#294b6e" d="M104.5 42.5c-1.238-1.714-1.905-3.714-2-6 .722-.417 1.222-1.084 1.5-2 .497 2.646.664 5.313.5 8Z"/><path style="opacity:1" fill="#0e1117" d="M101.5 32.5a9.818 9.818 0 0 0-3 4c-.236-2.726.597-5.059 2.5-7 .483.948.649 1.948.5 3Z"/><path style="opacity:1" fill="#202429" d="M58.5 20.5c-1.398 2.033-3.398 3.033-6 3-2.057.064-3.723-.602-5-2 1.9-.067 3.734.267 5.5 1 1.8-.82 3.634-1.486 5.5-2Z"/><path style="opacity:1" fill="#2b323c" d="M164.5 16.5c1.792.81 3.792 1.31 6 1.5-3.022 2.096-6.355 3.596-10 4.5.558-1.29 1.558-2.123 3-2.5-2.112-1.217-1.779-2.383 1-3.5Z"/><path style="opacity:1" fill="#2b323a" d="M110.5 16.5c1.792.81 3.792 1.31 6 1.5-3.022 2.096-6.355 3.596-10 4.5.558-1.29 1.558-2.123 3-2.5-2.112-1.217-1.779-2.383 1-3.5Z"/><path style="opacity:1" fill="#0f0e10" d="M59.5 14.5v3a18.436 18.436 0 0 1 6 .5c-2.07 1.523-4.403 2.357-7 2.5.417-.722 1.084-1.222 2-1.5-3.129-.52-3.462-2.02-1-4.5Z"/><path style="opacity:1" fill="#24282d" d="M43.5 9.5a21.986 21.986 0 0 1 7.5 6 20.938 20.938 0 0 0 4.5-3c-.754 2.591-2.421 4.424-5 5.5l-6 1c.556.383.89.883 1 1.5-3.714-2.158-7.714-3.824-12-5a25.86 25.86 0 0 0 5-3c2.12 1.371 3.12.705 3-2 1.368 1.918 2.368 4.085 3 6.5 1.667.667 3.333.667 5 0a66.372 66.372 0 0 0-6-7.5Z"/><path style="opacity:1" fill="#ddd" d="M143.5 13.5c4.312 2.353 3.978 3.353-1 3a5.727 5.727 0 0 1 1-3Z"/><path style="opacity:1" fill="#dcdcdc" d="M89.5 13.5c4.312 2.353 3.978 3.353-1 3a5.728 5.728 0 0 1 1-3Z"/><path style="opacity:1" fill="#e3e3e3" d="M37.5 14.5c1.603-.188 2.937.312 4 1.5-1.963.844-3.296.344-4-1.5Z"/><path style="opacity:1" fill="#232930" d="M150.5 10.5c-1.347-.528-2.681-.695-4-.5 1.817 1.8 2.984 3.966 3.5 6.5 2.045 1.543 3.545 1.21 4.5-1 .617.11 1.117.444 1.5 1 2.766-3.277 5.933-5.943 9.5-8-3.52 5.697-8.52 9.197-15 10.5 1.733 1.189 3.4 2.356 5 3.5a116.4 116.4 0 0 1-13-6c4.978.353 5.312-.647 1-3 1.455-.43 2.788-.43 4 0-1.018-1.352-2.351-2.352-4-3 1.544-1.946 3.544-2.446 6-1.5.556.383.889.883 1 1.5Z"/><path style="opacity:1" fill="#06080d" d="M143.5 13.5a5.727 5.727 0 0 0-1 3c-3.671-1.105-3.338-2.105 1-3Z"/><path style="opacity:1" fill="#070a0f" d="M89.5 13.5a5.728 5.728 0 0 0-1 3c-3.671-1.105-3.338-2.105 1-3Z"/><path style="opacity:1" fill="#101318" d="M166.5 11.5c-.296 1.903-.963 3.57-2 5-.38-2.198.287-3.865 2-5Z"/><path style="opacity:1" fill="#212931" d="M150.5 10.5c2.031 1.039 3.364 2.705 4 5-2.043-1.08-3.376-2.746-4-5Z"/><path style="opacity:1" fill="#20232a" d="M96.5 10.5c-1.347-.528-2.68-.695-4-.5 1.817 1.8 2.984 3.966 3.5 6.5 2.045 1.543 3.545 1.21 4.5-1 .617.11 1.117.444 1.5 1 2.766-3.277 5.933-5.943 9.5-8-3.52 5.697-8.52 9.197-15 10.5 1.733 1.189 3.4 2.356 5 3.5-4.357-2.044-8.69-4.044-13-6 4.978.353 5.312-.647 1-3 1.455-.43 2.788-.43 4 0-1.017-1.352-2.35-2.352-4-3 1.544-1.946 3.544-2.446 6-1.5.556.383.89.883 1 1.5Z"/><path style="opacity:1" fill="#212a33" d="M96.5 10.5c2.031 1.039 3.365 2.705 4 5-2.043-1.08-3.376-2.746-4-5Z"/><path style="opacity:1" fill="#efeff0" d="M165.5 8.5a2.427 2.427 0 0 1 2 .5c-.752.67-1.086 1.504-1 2.5-1.713 1.135-2.38 2.802-2 5-2.779 1.117-3.112 2.283-1 3.5-1.442.377-2.442 1.21-3 2.5h-5a311.784 311.784 0 0 0-5-3.5c6.48-1.303 11.48-4.803 15-10.5Z"/><path style="opacity:1" fill="#eee" d="M111.5 8.5a2.427 2.427 0 0 1 2 .5c-.752.67-1.086 1.504-1 2.5-1.431 1.28-2.098 2.947-2 5-2.779 1.117-3.112 2.283-1 3.5-1.442.377-2.442 1.21-3 2.5h-5a312.234 312.234 0 0 0-5-3.5c6.48-1.303 11.48-4.803 15-10.5Z"/><path style="opacity:1" fill="#ebebeb" d="M96.5 10.5c.624 2.254 1.957 3.92 4 5-.955 2.21-2.455 2.543-4.5 1-.516-2.534-1.683-4.7-3.5-6.5 1.32-.195 2.653-.028 4 .5Z"/><path style="opacity:1" fill="#121822" d="M62.5 9.5c-.61 1.934-1.61 3.6-3 5-.227-2.433.773-4.1 3-5Z"/><path style="opacity:1" fill="#e6e6e6" d="M41.5 10.5c.342-.838 1.008-1.172 2-1a66.372 66.372 0 0 1 6 7.5c-1.667.667-3.333.667-5 0-.632-2.415-1.632-4.582-3-6.5Z"/><path style="opacity:1" fill="#e8e8e8" d="M150.5 10.5c.624 2.254 1.957 3.92 4 5-.955 2.21-2.455 2.543-4.5 1-.516-2.534-1.683-4.7-3.5-6.5 1.319-.195 2.653-.028 4 .5ZM62.5 9.5c-2.227.9-3.227 2.567-3 5-2.462 2.48-2.129 3.98 1 4.5-.916.278-1.583.778-2 1.5-1.866.514-3.7 1.18-5.5 2a12.988 12.988 0 0 0-5.5-1c-.342-.838-1.008-1.172-2-1-.11-.617-.444-1.117-1-1.5l6-1c2.579-1.076 4.246-2.909 5-5.5 2.236-.89 4.236-2.222 6-4 .607.124.94.457 1 1Z"/><path style="opacity:1" fill="#1c2127" d="M166.5 11.5c-.086-.996.248-1.83 1-2.5a2.427 2.427 0 0 0-2-.5c1.511-1.941 3.511-2.441 6-1.5a31.416 31.416 0 0 1-5 4.5Z"/><path style="opacity:1" fill="#1d2127" d="M112.5 11.5c-.086-.996.248-1.83 1-2.5a2.427 2.427 0 0 0-2-.5c1.511-1.941 3.511-2.441 6-1.5a31.416 31.416 0 0 1-5 4.5Z"/><path style="opacity:1" fill="#1a1613" d="M43.5 9.5c-.992-.172-1.658.162-2 1a4.932 4.932 0 0 1-3-.5c1.648-1.677 3.315-1.844 5-.5Z"/><path style="opacity:1" fill="#282a2d" d="M62.5 9.5c-.06-.543-.393-.876-1-1-1.764 1.778-3.764 3.11-6 4 2.085-4.208 5.419-6.04 10-5.5a10.52 10.52 0 0 1-3 2.5Z"/><path style="opacity:1" fill="#b5b5b5" d="M35.5 166.5v-7h-6v7c-.973-2.448-1.306-5.115-1-8h8c.306 2.885-.027 5.552-1 8Z"/><path style="opacity:1" fill="#fbfbfb" d="M35.5 166.5h-6v-7h6v7Z"/><path style="opacity:1" fill="#f3f3f3" d="M37.5 158.5h10v8h-10v-8Z"/><path style="opacity:1" fill="#989999" d="M59.5 159.5h-10v7c-.973-2.448-1.306-5.115-1-8 3.871-.315 7.538.018 11 1Z"/><path style="opacity:1" fill="#f9f9f9" d="M59.5 159.5v7h-10v-7h10Z"/><path style="opacity:1" fill="#f2f2f2" d="M60.5 158.5h5a23.148 23.148 0 0 1 2 8h-7v-8Z"/><path style="opacity:1" fill="#fafafa" d="M140.5 166.5h-6c-.284-1.915.049-3.581 1-5 1.279-1.468 2.946-2.135 5-2v7Z"/><path style="opacity:1" fill="#919191" d="M134.5 155.5c.904.709 1.237 1.709 1 3h6c.306 2.885-.027 5.552-1 8v-7c-2.054-.135-3.721.532-5 2 0-.667-.333-1-1-1v-5Z"/><path style="opacity:1" fill="#f3f3f3" d="M152.5 158.5v8h-10v-8h10Z"/><path style="opacity:1" fill="#636364" d="M152.5 158.5h2v8h-2v-8Z"/><path style="opacity:1" fill="#f2f2f2" d="M154.5 158.5h10v8h-10v-8Z"/><path style="opacity:1" fill="#ececec" d="M165.5 158.5h8v8h-8v-8Z"/><path style="opacity:1" fill="#ebebec" d="M68.5 161.5a21.128 21.128 0 0 1 9 1l-4.5 1c-1.986-.069-3.486-.735-4.5-2Z"/><path style="opacity:1" fill="#eaeaea" d="M124.5 161.5c3.512-.555 6.512.112 9 2-3.512.555-6.512-.112-9-2Z"/><path style="opacity:1" fill="#f9f9f9" d="M68.5 164.5h9v37h-9v-37Z"/><path style="opacity:1" fill="#322e2a" d="M123.5 161.5h1c2.488 1.888 5.488 2.555 9 2v1c-3.213-.31-6.213.023-9 1v36h-1v-40Z"/><path style="opacity:1" fill="#fefffe" d="M124.5 165.5h8v36h-8v-36Z"/><path style="opacity:1" fill="#b3b3b3" d="M124.5 165.5c2.787-.977 5.787-1.31 9-1a342.787 342.787 0 0 1-1 37v-36h-8Z"/><path style="opacity:1" fill="#bdbebe" d="M28.5 167.5c1.248.834 1.915 2.167 2 4l-1 4a16.868 16.868 0 0 1-1-8Z"/><path style="opacity:1" fill="#fdfdfd" d="M40.5 167.5v7h-9v-7h9Z"/><path style="opacity:1" fill="#0379b6" d="M42.5 168.5c3.798-.983 7.798-1.317 12-1v38c-4.202.317-8.202-.017-12-1h11v-36h-11Z"/><path style="opacity:1" fill="#fcfcfc" d="M64.5 167.5v7h-9v-7h9ZM146.5 167.5v7h-10v-7h10Z"/><path style="opacity:1" fill="#124263" d="M147.5 167.5h1v38h-2v-3c.667 0 1-.333 1-1v-34Z"/><path style="opacity:1" fill="#f5f5f5" d="M161.5 167.5h9v8h-9v-8Z"/><path style="opacity:1" fill="#e1e1e1" d="M171.5 167.5c1.248.834 1.915 2.167 2 4l-1 4a16.873 16.873 0 0 1-1-8Z"/><path style="opacity:1" fill="#0093dd" d="M42.5 168.5h11v36h-11v-36Z"/><path style="opacity:1" fill="#008ed7" d="M148.5 167.5h12v38h-12v-38Z"/><path style="opacity:1" fill="#a6a6a6" d="M40.5 167.5c.973 2.448 1.306 5.115 1 8-3.542.313-6.875-.021-10-1h9v-7Z"/><path style="opacity:1" fill="#ababab" d="M64.5 167.5c.973 2.448 1.306 5.115 1 8-3.542.313-6.875-.021-10-1h9v-7Z"/><path style="opacity:1" fill="#9b9b9b" d="M146.5 167.5h1v8c-3.871.315-7.538-.018-11-1h10v-7Z"/><path style="opacity:1" fill="#f9f9f9" d="M35.5 176.5v7h-7v-7h7Z"/><path style="opacity:1" fill="#f7f7f7" d="M59.5 183.5h-4v-7h4v7Z"/><path style="opacity:1" fill="#f5f5f5" d="M67.5 183.5h-7v-7h7v7Z"/><path style="opacity:1" fill="#f4f4f4" d="M141.5 183.5h-7v-7h7v7Z"/><path style="opacity:1" fill="#fefffe" d="M146.5 176.5v7h-4v-7h4Z"/><path style="opacity:1" fill="#fcfcfc" d="M164.5 183.5h-3v-7h3v7Z"/><path style="opacity:1" fill="#f6f6f6" d="M173.5 183.5h-8v-7h8v7Z"/><path style="opacity:1" fill="#767677" d="M55.5 183.5h4c.333 1.333.667 1.333 1 0h7a40.939 40.939 0 0 1-.5 9c-.112-3.134-.612-5.467-1.5-7h-10v-2Z"/><path style="opacity:1" fill="#6e6e6f" d="M35.5 176.5h2v7h3v-7c1.333 5.333 1.333 10.667 0 16v-7h-9c-.333-1.333-.667-1.333-1 0h-2v-2h7v-7Z"/><path style="opacity:1" fill="#fefffe" d="M37.5 176.5h3v7h-3v-7Z"/><path style="opacity:1" fill="#727272" d="M146.5 176.5h1v16h-1v-7h-10c-.888 1.533-1.388 3.866-1.5 7a40.914 40.914 0 0 1-.5-9h7c.333 1.333.667 1.333 1 0h4v-7Z"/><path style="opacity:1" fill="#676868" d="M161.5 183.5h3c.333 1.333.667 1.333 1 0h8v2h-2c-.333-1.333-.667-1.333-1 0h-9v-2Z"/><path style="opacity:1" fill="#fefffe" d="M31.5 185.5h9v7h-9v-7Z"/><path style="opacity:1" fill="#f7f7f7" d="M55.5 185.5h10v7h-10v-7Z"/><path style="opacity:1" fill="#fdfdfd" d="M136.5 185.5h10v7h-10v-7Z"/><path style="opacity:1" fill="#fafafa" d="M161.5 185.5h9v7h-9v-7Z"/><path style="opacity:1" fill="#c6c6c6" d="M28.5 185.5h2c-.667 9.333-1.333 9.333-2 0Z"/><path style="opacity:1" fill="#f0f0f0" d="M171.5 185.5h2c-.667 9.333-1.333 9.333-2 0Z"/><path style="opacity:1" fill="#f7f7f7" d="M28.5 194.5h7v7-7h-7Z"/><path style="opacity:1" fill="#8e8e8e" d="M28.5 194.5c2.448-.973 5.115-1.306 8-1 .306 2.885-.027 5.552-1 8v-7h-7Z"/><path style="opacity:1" fill="#e2e2e2" d="M37.5 193.5h4v8h-4v-8Z"/><path style="opacity:1" fill="#ebebeb" d="M60.5 193.5h7v8h-7v-8Z"/><path style="opacity:1" fill="#fbfbfb" d="M134.5 194.5h6v7h-6v-7Z"/><path style="opacity:1" fill="#a7a7a7" d="M134.5 194.5c2.107-.968 4.441-1.302 7-1 .306 2.885-.027 5.552-1 8v-7h-6Z"/><path style="opacity:1" fill="#fbfbfb" d="M142.5 194.5h4v7h-4v-7Z"/><path style="opacity:1" fill="gray" d="M142.5 194.5c1.419-.951 3.085-1.284 5-1v8h-1v-7h-4Z"/><path style="opacity:1" fill="#e9e9e9" d="M161.5 193.5h3v8h-3v-8Z"/><path style="opacity:1" fill="#e1e1e1" d="M55.5 193.5h4v8h-4v-8Z"/><path style="opacity:1" fill="#cdcdcd" d="M165.5 193.5h8v8h-8v-8Z"/><path style="opacity:1" fill="#fefffe" d="M166.5 194.5h6v6h-6v-6Z"/><path style="opacity:1" fill="#f0f0f0" d="M65.5 202.5v3h-10v-3h10Z"/><path style="opacity:1" fill="#d9d9d9" d="M124.5 202.5h10v3h-10v-3Z"/><path style="opacity:1" fill="#e5e5e5" d="M28.5 202.5h13v3h-13v-3Z"/><path style="opacity:1" fill="#b1b1b1" d="M65.5 202.5h12v3h-12v-3Z"/><path style="opacity:1" fill="#05679b" d="M78.5 147.5c3.542-.313 6.875.021 10 1h-9v56h43v1h-44v-58Z"/><path style="opacity:1" fill="#e6e6e6" d="M146.5 202.5v3h-11v-3h11Z"/><path style="opacity:1" fill="#e9e9e9" d="M161.5 202.5h12v3h-12v-3Z"/><path style="opacity:1" fill="#08371c" d="M3.5 207.5v-1h196c.237 1.291-.096 2.291-1 3a4753.725 4753.725 0 0 0-195-2Z"/><path style="opacity:1" fill="#00903e" d="M3.5 207.5c65.342-.663 130.342.003 195 2v2c-3.397 6.556-8.731 10.722-16 12.5l-59 1c-9.211 3.217-16.711 8.717-22.5 16.5-5.789-7.783-13.289-13.283-22.5-16.5a1738.25 1738.25 0 0 1-58-1.5c-8.889-1.888-14.555-7.221-17-16Z"/><path style="opacity:1" fill="#212120" d="M.5 206.5h3v1c2.445 8.779 8.111 14.112 17 16l-1 2c-10.027-2.693-16.36-9.026-19-19Z"/><path style="opacity:.973" fill="#171817" d="M198.5 211.5h2c-3.475 7.975-9.475 12.809-18 14.5l-56 1c-11.815 2.653-20.148 9.487-25 20.5h-1c-4.153-8.985-10.82-15.485-20-19.5a2010.08 2010.08 0 0 0-61-2.5l1-2a1738.25 1738.25 0 0 0 58 1.5c9.211 3.217 16.711 8.717 22.5 16.5 5.789-7.783 13.289-13.283 22.5-16.5l59-1c7.269-1.778 12.603-5.944 16-12.5Z"/></svg>